<svg width="24" height="23" viewBox="0 0 24 23" fill="none" xmlns="http://www.w3.org/2000/svg">
<g clip-path="url(#clip0_646_199)">
<path fill-rule="evenodd" clip-rule="evenodd" d="M6.78033 0.0607488C8.00753 0.00425368 8.39881 -0.00830078 11.5249 -0.00830078C14.6509 -0.00830078 15.0422 0.00529989 16.2684 0.0607488C17.4945 0.116198 18.3315 0.311838 19.0638 0.595361C19.8307 0.88516 20.5264 1.33817 21.1019 1.92404C21.6877 2.49841 22.1397 3.19309 22.4284 3.96101C22.713 4.69335 22.9076 5.53032 22.9641 6.75438C23.0206 7.98367 23.0332 8.37495 23.0332 11.5C23.0332 14.626 23.0196 15.0173 22.9641 16.2445C22.9087 17.4686 22.713 18.3055 22.4284 19.0379C22.1397 19.8059 21.687 20.5017 21.1019 21.077C20.5264 21.6628 19.8307 22.1148 19.0638 22.4035C18.3315 22.6881 17.4945 22.8827 16.2705 22.9392C15.0422 22.9957 14.6509 23.0082 11.5249 23.0082C8.39881 23.0082 8.00753 22.9946 6.78033 22.9392C5.55627 22.8837 4.7193 22.6881 3.98696 22.4035C3.21896 22.1147 2.52313 21.662 1.9479 21.077C1.36242 20.5022 0.909345 19.8067 0.620263 19.0389C0.336741 18.3066 0.142146 17.4696 0.0856512 16.2456C0.029156 15.0163 0.0166016 14.625 0.0166016 11.5C0.0166016 8.37391 0.0302022 7.98263 0.0856512 6.75647C0.1411 5.53032 0.336741 4.69335 0.620263 3.96101C0.909772 3.19318 1.36319 2.49769 1.94895 1.923C2.52336 1.33765 3.21849 0.884577 3.98591 0.595361C4.71825 0.311838 5.55522 0.117244 6.77928 0.0607488H6.78033ZM16.1753 2.13224C14.9617 2.07679 14.5976 2.06528 11.5249 2.06528C8.45217 2.06528 8.08809 2.07679 6.87449 2.13224C5.75191 2.1835 5.14301 2.37077 4.73709 2.52875C4.20038 2.73799 3.81642 2.98594 3.41364 3.38873C3.03182 3.76019 2.73797 4.21239 2.55365 4.71218C2.39568 5.11811 2.2084 5.727 2.15714 6.84958C2.10169 8.06318 2.09018 8.42726 2.09018 11.5C2.09018 14.5727 2.10169 14.9368 2.15714 16.1504C2.2084 17.2729 2.39568 17.8818 2.55365 18.2878C2.73779 18.7868 3.03177 19.2398 3.41364 19.6112C3.78504 19.9931 4.23805 20.2871 4.73709 20.4712C5.14301 20.6292 5.75191 20.8164 6.87449 20.8677C8.08809 20.9232 8.45112 20.9347 11.5249 20.9347C14.5986 20.9347 14.9617 20.9232 16.1753 20.8677C17.2978 20.8164 17.9067 20.6292 18.3127 20.4712C18.8494 20.262 19.2333 20.014 19.6361 19.6112C20.018 19.2398 20.312 18.7868 20.4961 18.2878C20.6541 17.8818 20.8413 17.2729 20.8926 16.1504C20.9481 14.9368 20.9596 14.5727 20.9596 11.5C20.9596 8.42726 20.9481 8.06318 20.8926 6.84958C20.8413 5.727 20.6541 5.11811 20.4961 4.71218C20.2869 4.17548 20.0389 3.79152 19.6361 3.38873C19.2646 3.00694 18.8124 2.7131 18.3127 2.52875C17.9067 2.37077 17.2978 2.1835 16.1753 2.13224ZM10.055 15.0477C10.8759 15.3894 11.79 15.4355 12.6411 15.1781C13.4922 14.9208 14.2276 14.3759 14.7217 13.6366C15.2157 12.8973 15.4377 12.0093 15.3499 11.1245C15.262 10.2396 14.8696 9.41276 14.2398 8.78507C13.8383 8.38382 13.3528 8.07659 12.8183 7.88548C12.2839 7.69438 11.7136 7.62415 11.1488 7.67987C10.5839 7.73559 10.0384 7.91585 9.55152 8.2077C9.06467 8.49954 8.64859 8.8957 8.33322 9.36765C8.01785 9.8396 7.81104 10.3756 7.72768 10.9371C7.64433 11.4985 7.6865 12.0715 7.85116 12.6147C8.01582 13.1579 8.29888 13.6579 8.67995 14.0786C9.06102 14.4993 9.53062 14.8302 10.055 15.0477ZM7.34214 7.31724C7.89143 6.76795 8.54352 6.33224 9.2612 6.03497C9.97887 5.7377 10.7481 5.58469 11.5249 5.58469C12.3017 5.58469 13.0709 5.7377 13.7886 6.03497C14.5062 6.33224 15.1583 6.76795 15.7076 7.31724C16.2569 7.86652 16.6926 8.51862 16.9899 9.23629C17.2872 9.95397 17.4402 10.7232 17.4402 11.5C17.4402 12.2768 17.2872 13.046 16.9899 13.7637C16.6926 14.4813 16.2569 15.1334 15.7076 15.6827C14.5983 16.792 13.0937 17.4153 11.5249 17.4153C9.95605 17.4153 8.45147 16.792 7.34214 15.6827C6.23281 14.5734 5.6096 13.0688 5.6096 11.5C5.6096 9.93114 6.23281 8.42657 7.34214 7.31724ZM18.7521 6.46563C18.8882 6.33722 18.9972 6.18282 19.0725 6.01155C19.1479 5.84027 19.1881 5.65562 19.1909 5.46852C19.1936 5.28142 19.1588 5.09567 19.0884 4.92227C19.0181 4.74888 18.9136 4.59136 18.7813 4.45904C18.649 4.32673 18.4915 4.22231 18.3181 4.15196C18.1447 4.08161 17.959 4.04677 17.7718 4.0495C17.5847 4.05223 17.4001 4.09247 17.2288 4.16784C17.0576 4.24321 16.9031 4.35218 16.7747 4.4883C16.525 4.75302 16.3883 5.10464 16.3936 5.46852C16.3989 5.8324 16.5458 6.17989 16.8032 6.43721C17.0605 6.69454 17.408 6.84145 17.7718 6.84676C18.1357 6.85206 18.4874 6.71535 18.7521 6.46563Z" fill="#333333"/>
</g>
<defs>
<clipPath id="clip0_646_199">
<rect width="23.0165" height="23.0165" fill="white" transform="translate(0.0166016 -0.00830078)"/>
</clipPath>
</defs>
</svg>
