<svg width="25px" height="25px" viewBox="0 0 24 24" fill="none" xmlns="http://www.w3.org/2000/svg">
	<g id="SVGRepo_bgCarrier" strokeWidth="0">
	</g>
	<g id="SVGRepo_tracerCarrier" strokeLinecap="round" strokeLinejoin="round">
	</g>
	<g id="SVGRepo_iconCarrier">
		<path d="M20 4V20M9 10H15C15.5523 10 16 9.55228 16 9V5C16 4.44772 15.5523 4 15 4H9C8.44772 4 8 4.44772 8 5V9C8 9.55228 8.44772 10 9 10ZM5 20H15C15.5523 20 16 19.5523 16 19V15C16 14.4477 15.5523 14 15 14H5C4.44772 14 4 14.4477 4 15V19C4 19.5523 4.44772 20 5 20Z" stroke="#000000" strokeWidth="2" strokeLinecap="round" strokeLinejoin="round">
		</path>
	</g>
</svg>
