<svg width="28" height="26" viewBox="0 0 28 26" fill="none" xmlns="http://www.w3.org/2000/svg">
	<path d="M12.0006 13.0001H4.66724M4.55436 13.3888L1.44113 22.6884C1.19656 23.4189 1.07427 23.7842 1.16203 24.0092C1.23824 24.2045 1.40192 24.3527 1.6039 24.409C1.83648 24.4739 2.18777 24.3158 2.89035 23.9997L25.1723 13.9728C25.8581 13.6642 26.201 13.5099 26.3069 13.2956C26.399 13.1093 26.399 12.8908 26.3069 12.7046C26.201 12.4903 25.8581 12.336 25.1723 12.0274L2.88258 1.99705C2.18212 1.68185 1.83189 1.52424 1.59954 1.5889C1.39775 1.64504 1.23409 1.79276 1.15761 1.98775C1.06955 2.21227 1.19053 2.57678 1.4325 3.30578L4.55523 12.7141C4.59679 12.8393 4.61757 12.9019 4.62577 12.966C4.63305 13.0228 4.63297 13.0803 4.62555 13.1371C4.61718 13.2011 4.59624 13.2637 4.55436 13.3888Z" stroke="#D681FF" strokeWidth="2" strokeLinecap="round" strokeLinejoin="round" />
</svg>
