<svg width="24" height="23" viewBox="0 0 24 23" fill="none" xmlns="http://www.w3.org/2000/svg">
<path d="M0.539684 14.8561C1.26153 17.2159 2.72192 19.2816 4.70587 20.7492C6.68983 22.2168 9.09253 23.0087 11.5603 23.0082C17.9244 23.0082 23.083 17.8554 23.083 11.5C23.083 5.14453 17.9244 -0.00829992 11.5617 -0.00829992C8.64046 -0.00943001 5.82792 1.0996 3.69361 3.09422C1.55929 5.08885 0.262714 7.82001 0.0664062 10.7347L0.0707219 10.7433L6.26217 13.2881C6.82058 12.9184 7.48196 12.7355 8.15097 12.7659L10.9705 8.67469L10.9691 8.61715C10.9702 7.45678 11.4316 6.34423 12.2519 5.52359C13.0723 4.70294 14.1847 4.24121 15.3451 4.23969C16.5055 4.24121 17.6178 4.70294 18.4382 5.52359C19.2586 6.34423 19.72 7.45678 19.7211 8.61715C19.7207 9.20023 19.6039 9.77736 19.3776 10.3147C19.1513 10.8521 18.8201 11.339 18.4034 11.7468C17.9866 12.1545 17.4927 12.4751 16.9505 12.6896C16.4083 12.9041 15.8288 13.0083 15.2458 12.996L11.2122 15.8731C11.2259 16.406 11.1061 16.9339 10.8638 17.4088C10.6214 17.8836 10.2642 18.2904 9.82468 18.592C9.38511 18.8936 8.8771 19.0806 8.34687 19.1358C7.81664 19.1911 7.281 19.1129 6.78868 18.9084C6.31615 18.7115 5.89797 18.4038 5.56946 18.0112C5.24096 17.6186 5.01179 17.1526 4.90132 16.6528L0.541123 14.8561H0.539684Z" fill="#333333"/>
<path d="M7.06908 18.2366C7.66842 18.4654 8.3333 18.4517 8.92273 18.1985C9.51215 17.9452 9.97975 17.4724 10.2264 16.8802C10.473 16.2879 10.4792 15.6229 10.2438 15.0262C10.0083 14.4295 9.54964 13.9479 8.96507 13.6837C8.38546 13.4418 7.73517 13.4315 7.1482 13.6549L8.61982 14.2648C8.8399 14.3564 9.03978 14.4905 9.20805 14.6594C9.37631 14.8283 9.50967 15.0286 9.60051 15.249C9.69134 15.4694 9.73787 15.7056 9.73745 15.944C9.73702 16.1824 9.68964 16.4183 9.59802 16.6384C9.5064 16.8585 9.37233 17.0584 9.20346 17.2266C9.03459 17.3949 8.83423 17.5283 8.61382 17.6191C8.39342 17.7099 8.15728 17.7565 7.91889 17.756C7.6805 17.7556 7.44452 17.7082 7.22444 17.6166L5.80029 17.0268C6.05946 17.5725 6.51142 18.0029 7.06908 18.2352V18.2366ZM12.4291 8.61714C12.4294 9.39064 12.7367 10.1324 13.2834 10.6796C13.83 11.2268 14.5715 11.5348 15.345 11.5359C16.1185 11.5348 16.8599 11.2268 17.4066 10.6796C17.9533 10.1324 18.2605 9.39064 18.2609 8.61714C18.2597 7.84414 17.9522 7.10314 17.4056 6.55654C16.859 6.00995 16.118 5.70237 15.345 5.70123C14.572 5.70237 13.831 6.00995 13.2844 6.55654C12.7378 7.10314 12.4302 7.84414 12.4291 8.61714ZM15.3493 6.4205C15.6372 6.42069 15.9222 6.47758 16.1881 6.58793C16.4541 6.69828 16.6956 6.85992 16.8991 7.06363C17.1025 7.26734 17.2638 7.50913 17.3738 7.77519C17.4838 8.04125 17.5404 8.32636 17.5402 8.61426C17.54 8.90216 17.4831 9.18721 17.3727 9.45312C17.2624 9.71904 17.1007 9.96061 16.897 10.1641C16.6933 10.3675 16.4515 10.5288 16.1855 10.6388C15.9194 10.7488 15.6343 10.8053 15.3464 10.8052C14.765 10.8048 14.2075 10.5734 13.7966 10.162C13.3857 9.75061 13.1551 9.19283 13.1555 8.61139C13.1559 8.02995 13.3872 7.47247 13.7987 7.0616C14.2101 6.65073 14.7678 6.42012 15.3493 6.4205Z" fill="#333333"/>
</svg>
