<svg width="24" height="23" viewBox="0 0 24 23" fill="none" xmlns="http://www.w3.org/2000/svg">
<g clip-path="url(#clip0_646_201)">
<path d="M11.5415 23.0082C17.8973 23.0082 23.0498 17.8558 23.0498 11.5C23.0498 5.14413 17.8973 -0.00830078 11.5415 -0.00830078C5.18563 -0.00830078 0.0332031 5.14413 0.0332031 11.5C0.0332031 17.8558 5.18563 23.0082 11.5415 23.0082Z" fill="#333333"/>
<path fill-rule="evenodd" clip-rule="evenodd" d="M5.24251 11.3785C8.59741 9.91681 10.8345 8.95319 11.9539 8.48761C15.1499 7.1583 15.8139 6.92739 16.2468 6.91976C16.342 6.91808 16.5549 6.94168 16.6927 7.05356C16.8092 7.14803 16.8412 7.27565 16.8565 7.36522C16.8719 7.45479 16.8909 7.65883 16.8758 7.81826C16.7026 9.63799 15.9532 14.054 15.5719 16.0921C15.4106 16.9545 15.093 17.2437 14.7855 17.272C14.1171 17.3335 13.6097 16.8303 12.9624 16.406C11.9495 15.7421 11.3773 15.3287 10.3941 14.6808C9.25789 13.9321 9.99446 13.5206 10.642 12.848C10.8115 12.672 13.756 9.99368 13.813 9.75072C13.8201 9.72033 13.8268 9.60706 13.7595 9.54725C13.6922 9.48744 13.5929 9.5079 13.5212 9.52416C13.4196 9.54722 11.8015 10.6167 8.66694 12.7326C8.20765 13.048 7.79164 13.2017 7.41891 13.1936C7.00801 13.1848 6.21759 12.9613 5.63 12.7703C4.90929 12.536 4.33649 12.4122 4.38637 12.0143C4.41235 11.8071 4.69773 11.5951 5.24251 11.3785Z" fill="white"/>
</g>
<defs>
<clipPath id="clip0_646_201">
<rect width="23.0165" height="23.0165" fill="white" transform="translate(0.0332031 -0.00830078)"/>
</clipPath>
</defs>
</svg>
