<svg xmlns="http://www.w3.org/2000/svg" fill="none" viewBox="0 0 16 16" width="20" height="20">
	<g fill="#C0C0D6" fillRule="evenodd" clipPath="url(#alarm_svg__a)" clipRule="evenodd">
		<path d="M9.08 4.429c-1.074 0-2.503.391-3.517 1.73a.75.75 0 1 1-1.196-.906C5.737 3.445 7.67 2.929 9.08 2.929a6.163 6.163 0 0 1 6.167 6.159 6.163 6.163 0 0 1-6.167 6.158c-1.78 0-3.3-.445-4.667-1.931a.75.75 0 1 1 1.104-1.016c1.018 1.107 2.095 1.447 3.563 1.447a4.663 4.663 0 0 0 4.667-4.658A4.663 4.663 0 0 0 9.08 4.429">
		</path>
		<path d="M1.8 8.04a.75.75 0 0 1 .75-.75h3.712a.75.75 0 1 1 0 1.5H2.549a.75.75 0 0 1-.75-.75ZM.754 10.447a.75.75 0 0 1 .75-.75h3.712a.75.75 0 1 1 0 1.5H1.504a.75.75 0 0 1-.75-.75m10.963-3.912a.75.75 0 0 1-.046 1.06L9.514 9.57a.75.75 0 1 1-1.013-1.106l2.157-1.975a.75.75 0 0 1 1.06.046Zm-4.44-5.039a.75.75 0 0 1 .75-.75h2.75a.75.75 0 0 1 0 1.5h-2.75a.75.75 0 0 1-.75-.75">
		</path>
	</g>
	<defs>
		<clipPath id="alarm_svg__a">
			<path fill="#fff" d="M0 0h16v16H0z">
			</path>
		</clipPath>
	</defs>
</svg>
