<svg width="16" height="13" viewBox="0 0 16 13" fill="none" xmlns="http://www.w3.org/2000/svg">
<path d="M2.96955 10.279C2.67665 10.5719 2.67665 11.0468 2.96955 11.3397C3.26244 11.6325 3.73731 11.6325 4.03021 11.3397L2.96955 10.279ZM12.8686 2.19059C12.8686 1.77638 12.5328 1.44059 12.1186 1.44059L5.36862 1.44059C4.9544 1.44059 4.61862 1.77637 4.61862 2.19059C4.61862 2.6048 4.9544 2.94059 5.36862 2.94059H11.3686V8.94059C11.3686 9.3548 11.7044 9.69059 12.1186 9.69059C12.5328 9.69059 12.8686 9.3548 12.8686 8.94059L12.8686 2.19059ZM4.03021 11.3397L12.6489 2.72092L11.5883 1.66026L2.96955 10.279L4.03021 11.3397Z" fill="#F1C644"/>
</svg>
