<svg width="24" height="23" viewBox="0 0 24 23" fill="none" xmlns="http://www.w3.org/2000/svg">
<g clip-path="url(#clip0_646_196)">
<path d="M0 11.0396C0 5.83157 0 3.22757 1.61793 1.60963C3.23587 -0.00830078 5.83987 -0.00830078 11.0479 -0.00830078H11.9686C17.1767 -0.00830078 19.7807 -0.00830078 21.3986 1.60963C23.0165 3.22757 23.0165 5.83157 23.0165 11.0396V11.9603C23.0165 17.1684 23.0165 19.7724 21.3986 21.3903C19.7807 23.0082 17.1767 23.0082 11.9686 23.0082H11.0479C5.83987 23.0082 3.23587 23.0082 1.61793 21.3903C0 19.7724 0 17.1684 0 11.9603V11.0396Z" fill="#333333"/>
<path d="M12.2072 16.5636C6.85974 16.5636 3.8097 12.9349 3.68262 6.89667H6.36122C6.4492 11.3286 8.42389 13.2058 9.98804 13.5929V6.89667H12.5103V10.7189C14.0549 10.5544 15.6775 8.81264 16.225 6.89667H18.7472C18.3269 9.25776 16.5672 10.9996 15.3159 11.7156C16.5672 12.2962 18.5713 13.8155 19.3339 16.5636H16.5574C15.9611 14.7251 14.4753 13.3026 12.5103 13.1091V16.5636H12.2072Z" fill="white"/>
</g>
<defs>
<clipPath id="clip0_646_196">
<rect width="23.0165" height="23.0165" fill="white" transform="translate(0 -0.00830078)"/>
</clipPath>
</defs>
</svg>
