<svg width="120" height="16" viewBox="0 0 120 16" fill="none" xmlns="http://www.w3.org/2000/svg">
<path d="M0.68 0.423999H6.92C8.44 0.423999 9.64 0.527999 10.52 0.735999C11.416 0.943999 12.064 1.312 12.464 1.84C12.88 2.352 13.088 3.072 13.088 4V6.952C13.088 7.976 12.864 8.776 12.416 9.352C11.984 9.928 11.288 10.336 10.328 10.576C9.384 10.816 8.104 10.936 6.488 10.936H4.424V16H0.68V0.423999ZM6.8 8.368C7.776 8.368 8.464 8.256 8.864 8.032C9.264 7.792 9.464 7.392 9.464 6.832V4.336C9.464 3.824 9.272 3.488 8.888 3.328C8.52 3.168 7.808 3.088 6.752 3.088H4.424V8.368H6.8ZM15.7269 0.423999H19.4709V13.336H27.1269V16H15.7269V0.423999ZM33.7768 0.423999H38.3368L43.9528 16H40.1608L38.7688 11.896H33.0808L31.7128 16H28.0168L33.7768 0.423999ZM37.9528 9.4L35.9848 3.544H35.8888L33.9208 9.4H37.9528ZM49.832 9.76L44.192 0.423999H48.44L51.728 6.52L54.992 0.423999H59.264L53.576 9.712V16H49.832V9.76Z" fill="#333333"/>
<path d="M61.1253 0.423999H68.1333C70.2133 0.423999 71.7173 0.679999 72.6453 1.192C73.5733 1.688 74.0373 2.528 74.0373 3.712V6.448C74.0373 7.36 73.7093 8.08 73.0533 8.608C72.4133 9.12 71.5573 9.448 70.4853 9.592L74.9973 16H70.6773L66.5973 9.88H64.8693V16H61.1253V0.423999ZM68.0853 7.408C68.9653 7.408 69.5653 7.296 69.8853 7.072C70.2053 6.832 70.3653 6.376 70.3653 5.704V4.6C70.3653 4.024 70.1893 3.632 69.8373 3.424C69.5013 3.2 68.9173 3.088 68.0853 3.088H64.8693V7.408H68.0853ZM77.1566 0.423999H89.0366V3.088H80.9006V6.664H88.2446V9.328H80.9006V13.336H89.2766V16H77.1566V0.423999ZM95.933 0.423999H100.493L106.109 16H102.317L100.925 11.896H95.237L93.869 16H90.173L95.933 0.423999ZM100.109 9.4L98.141 3.544H98.045L96.077 9.4H100.109ZM107.836 0.423999H111.58V13.336H119.236V16H107.836V0.423999Z" fill="url(#paint0_linear_426_1296)"/>
<defs>
<linearGradient id="paint0_linear_426_1296" x1="-4.78939" y1="14.6149" x2="128.095" y2="4.03434" gradientUnits="userSpaceOnUse">
<stop stop-color="#0069E4"/>
<stop offset="1" stop-color="#CC61FF"/>
</linearGradient>
</defs>
</svg>
