<svg width="109" height="25" viewBox="0 0 109 25" fill="none" xmlns="http://www.w3.org/2000/svg">
<rect x="0.5" y="0.5" width="107.5" height="24" rx="12" stroke="white"/>
<path d="M11.3 9.93H8.3V8.265H16.625V9.93H13.64V18H11.3V9.93ZM17.8809 10.74H19.9659V12.015C19.9659 11.785 20.0609 11.56 20.2509 11.34C20.4409 11.12 20.6809 10.94 20.9709 10.8C21.2709 10.66 21.5659 10.59 21.8559 10.59H22.6359V12.405H21.8859C21.2659 12.405 20.8059 12.5 20.5059 12.69C20.2159 12.88 20.0709 13.195 20.0709 13.635V18H17.8809V10.74ZM26.3628 18.15C25.4328 18.15 24.7778 17.985 24.3978 17.655C24.0278 17.315 23.8428 16.785 23.8428 16.065V10.74H26.0328V15.765C26.0328 16.045 26.0578 16.255 26.1078 16.395C26.1678 16.535 26.2778 16.635 26.4378 16.695C26.6078 16.755 26.8628 16.785 27.2028 16.785C27.6328 16.785 27.9478 16.76 28.1478 16.71C28.3478 16.65 28.4828 16.55 28.5528 16.41C28.6228 16.27 28.6578 16.055 28.6578 15.765V10.74H30.8478V18H28.6878V17.115C28.5278 17.805 27.7528 18.15 26.3628 18.15ZM35.4787 18.15C34.6987 18.15 33.7437 18.075 32.6137 17.925V16.47C34.0037 16.68 34.9687 16.785 35.5087 16.785C35.9687 16.785 36.3087 16.74 36.5287 16.65C36.7487 16.56 36.8587 16.395 36.8587 16.155V15.705C36.8587 15.455 36.7887 15.28 36.6487 15.18C36.5087 15.07 36.2337 15.015 35.8237 15.015H34.8787C34.1087 15.015 33.5137 14.865 33.0937 14.565C32.6737 14.255 32.4637 13.805 32.4637 13.215V12.33C32.4637 11.7 32.7637 11.255 33.3637 10.995C33.9637 10.725 34.8687 10.59 36.0787 10.59C36.5587 10.59 37.4187 10.635 38.6587 10.725V12.12C37.0987 12 36.2187 11.94 36.0187 11.94C35.4287 11.94 35.0437 11.98 34.8637 12.06C34.7037 12.15 34.6237 12.315 34.6237 12.555V12.945C34.6237 13.075 34.6887 13.19 34.8187 13.29C34.9487 13.38 35.1387 13.425 35.3887 13.425H36.3487C38.1287 13.425 39.0187 14.005 39.0187 15.165V16.08C39.0187 16.43 38.9537 16.735 38.8237 16.995C38.6937 17.255 38.5237 17.46 38.3137 17.61C38.1137 17.75 37.8537 17.86 37.5337 17.94C37.2237 18.02 36.8987 18.075 36.5587 18.105C36.2487 18.135 35.8887 18.15 35.4787 18.15ZM44.2746 18.15C43.9046 18.15 43.5946 18.135 43.3446 18.105C43.0946 18.075 42.8446 18.015 42.5946 17.925C42.3146 17.835 42.0846 17.71 41.9046 17.55C41.7346 17.39 41.5946 17.17 41.4846 16.89C41.3646 16.6 41.3046 16.265 41.3046 15.885V12.09H39.8346V10.74H41.3046V8.64H43.4946V10.74H45.4896V12.09H43.4946V15.51C43.4946 15.86 43.5246 16.125 43.5846 16.305C43.6446 16.475 43.7596 16.6 43.9296 16.68C44.0996 16.75 44.3596 16.785 44.7096 16.785C44.8496 16.785 45.1096 16.76 45.4896 16.71V18.075C45.0196 18.125 44.6146 18.15 44.2746 18.15ZM46.753 10.74H48.823V11.46C48.953 11.14 49.208 10.915 49.588 10.785C49.968 10.655 50.533 10.59 51.283 10.59C51.913 10.59 52.418 10.64 52.798 10.74C53.188 10.84 53.483 11 53.683 11.22C53.873 11.44 54.003 11.685 54.073 11.955C54.143 12.215 54.178 12.575 54.178 13.035V15.42C54.178 16.14 54.073 16.695 53.863 17.085C53.653 17.475 53.328 17.75 52.888 17.91C52.458 18.07 51.868 18.15 51.118 18.15C50.398 18.15 49.878 18.09 49.558 17.97C49.238 17.85 49.033 17.615 48.943 17.265V21.12H46.753V10.74ZM50.443 16.785C50.873 16.785 51.198 16.755 51.418 16.695C51.638 16.635 51.788 16.53 51.868 16.38C51.948 16.23 51.988 16.005 51.988 15.705V13.02C51.988 12.69 51.953 12.455 51.883 12.315C51.813 12.165 51.673 12.065 51.463 12.015C51.253 11.965 50.908 11.94 50.428 11.94C50.018 11.94 49.703 11.975 49.483 12.045C49.273 12.115 49.128 12.225 49.048 12.375C48.978 12.525 48.943 12.74 48.943 13.02V15.705C48.943 16.005 48.978 16.23 49.048 16.38C49.128 16.53 49.273 16.635 49.483 16.695C49.693 16.755 50.013 16.785 50.443 16.785ZM55.9536 8.115H58.1436V9.885H55.9536V8.115ZM55.9536 10.74H58.1436V18H55.9536V10.74ZM60.187 7.5H62.377V18H60.187V7.5ZM67.8404 18.15C67.3904 18.15 67.0204 18.135 66.7304 18.105C66.4404 18.075 66.1304 18.015 65.8004 17.925C65.4404 17.825 65.1504 17.685 64.9304 17.505C64.7104 17.315 64.5254 17.05 64.3754 16.71C64.2254 16.38 64.1504 15.98 64.1504 15.51V13.365C64.1504 12.885 64.2254 12.465 64.3754 12.105C64.5254 11.745 64.7204 11.465 64.9604 11.265C65.1704 11.095 65.4454 10.955 65.7854 10.845C66.1354 10.725 66.4754 10.65 66.8054 10.62C67.1854 10.6 67.5304 10.59 67.8404 10.59C68.3004 10.59 68.6654 10.605 68.9354 10.635C69.2154 10.655 69.5204 10.715 69.8504 10.815C70.2104 10.925 70.5004 11.075 70.7204 11.265C70.9504 11.455 71.1454 11.725 71.3054 12.075C71.4554 12.435 71.5304 12.865 71.5304 13.365V15.51C71.5304 15.96 71.4554 16.355 71.3054 16.695C71.1654 17.035 70.9804 17.3 70.7504 17.49C70.5504 17.66 70.2754 17.8 69.9254 17.91C69.5854 18.01 69.2504 18.075 68.9204 18.105C68.6204 18.135 68.2604 18.15 67.8404 18.15ZM67.8404 16.785C68.2504 16.785 68.5604 16.755 68.7704 16.695C68.9804 16.625 69.1254 16.52 69.2054 16.38C69.2954 16.24 69.3404 16.035 69.3404 15.765V13.02C69.3404 12.62 69.2354 12.34 69.0254 12.18C68.8154 12.02 68.4204 11.94 67.8404 11.94C67.2604 11.94 66.8654 12.02 66.6554 12.18C66.4454 12.34 66.3404 12.62 66.3404 13.02V15.765C66.3404 16.035 66.3804 16.24 66.4604 16.38C66.5504 16.52 66.7004 16.625 66.9104 16.695C67.1204 16.755 67.4304 16.785 67.8404 16.785ZM76.8673 18.15C76.4973 18.15 76.1873 18.135 75.9373 18.105C75.6873 18.075 75.4373 18.015 75.1873 17.925C74.9073 17.835 74.6773 17.71 74.4973 17.55C74.3273 17.39 74.1873 17.17 74.0773 16.89C73.9573 16.6 73.8973 16.265 73.8973 15.885V12.09H72.4273V10.74H73.8973V8.64H76.0873V10.74H78.0823V12.09H76.0873V15.51C76.0873 15.86 76.1173 16.125 76.1773 16.305C76.2373 16.475 76.3523 16.6 76.5223 16.68C76.6923 16.75 76.9523 16.785 77.3023 16.785C77.4423 16.785 77.7023 16.76 78.0823 16.71V18.075C77.6123 18.125 77.2073 18.15 76.8673 18.15Z" fill="white"/>
<path d="M87.9697 16.279C87.6768 16.5719 87.6768 17.0468 87.9697 17.3397C88.2626 17.6325 88.7374 17.6325 89.0303 17.3397L87.9697 16.279ZM97.8687 8.19059C97.8687 7.77638 97.533 7.44059 97.1187 7.44059L90.3687 7.44059C89.9545 7.44059 89.6187 7.77637 89.6187 8.19059C89.6187 8.6048 89.9545 8.94059 90.3687 8.94059H96.3687V14.9406C96.3687 15.3548 96.7045 15.6906 97.1187 15.6906C97.533 15.6906 97.8687 15.3548 97.8687 14.9406L97.8687 8.19059ZM89.0303 17.3397L97.6491 8.72092L96.5884 7.66026L87.9697 16.279L89.0303 17.3397Z" fill="white"/>
</svg>
